<?xml version="1.0" encoding="utf-8"?>
<!-- Generator: Adobe Illustrator 23.0.1, SVG Export Plug-In . SVG Version: 6.00 Build 0)  -->
<svg version="1.1" id="Layer_1" xmlns="http://www.w3.org/2000/svg" xmlns:xlink="http://www.w3.org/1999/xlink" x="0px" y="0px"
	 viewBox="0 0 312 311.9" style="enable-background:new 0 0 312 311.9;" xml:space="preserve">
<style type="text/css">
	.st0{fill:#FFFFFF;}
	.st1{fill:#B5C8FF;}
</style>
<g>
	<path class="st0" d="M221.8,199.9c-8.2-3.5-16.5-6.8-24.7-10.4c-2.5-1.1-5-2.4-7.1-4c-4.8-3.8-7-8.8-6-14.9
		c0.6-4.2,2.7-7.7,5.3-10.9c8.1-10,14.4-21,18.5-33.2c5-15.2,6-30.6,3.6-46.4c-3-19.7-13.5-34-31.9-41.8c-16-6.8-32.3-6.3-48.1,0.7
		c-12.8,5.7-21.9,15.3-26.4,28.6c-5.3,15.6-6.2,31.7-2.9,48c3.3,16.1,10.8,30.3,20.8,43.3c1.7,2.2,3.3,4.5,4.5,7
		c3.2,6.8,1.8,13.5-3.7,18.2c-2,1.7-4.5,3.1-7,4.2c-7.4,3.4-15,6.4-22.3,9.8c-11.6,5.4-22.6,11.6-32.1,20.4
		c-5.2,4.8-9.7,10-12.1,16.7c-0.4,1.1-0.7,2.2-1.1,3.5c-0.1-0.1-0.1-0.2-0.2-0.3c-0.2,0.5-0.5,1-0.7,1.5c-0.6,7.2-1.3,14.5-2.6,21.7
		c5.8,6.1,12.3,11.8,19.4,17.2c29.4,22,62.8,31.4,99.3,30c8.7-0.3,17.5-1.1,26.2-1.7c3.1-0.2,6.3-0.6,9.8-0.9
		c-0.7-0.9-1-1.5-1.5-2.1c-5.5-6.6-11-13.1-16.4-19.8c-1.4-1.7-3-3-4.9-4.1c-6.4-3.5-13.1-6.7-19.1-10.8
		c-13-8.8-17.1-23.7-10.6-37.7c3.7-7.9,8.8-14.8,15.2-20.8c6-5.7,13.3-8.9,21.7-8.1c4.8,0.5,9.6,1.8,14.2,3.5
		c7,2.5,13.8,5.6,20.7,8.5c0.5,0.2,1.5,0.3,1.8,0c2.9-3.4,5.8-6.8,8.8-10.4C227.2,202.7,224.6,201.1,221.8,199.9z"/>
	<path class="st1" d="M302.8,115.3c-12.4-43.4-39-75.1-79.5-95C191.1,4.4,157,1.1,122.1,9.1C75.1,19.9,40.8,47.3,19.8,90.7
		c-14.7,30.3-18,62.4-12,95.4c4.6,24.9,14.3,46.8,29.1,65.5c2.3-7.6,3.4-15.8,5-23.5c-2.4-3.9-4.5-7.9-6.5-12.1
		c-12.4-26.8-15.9-54.9-10.8-84c5-28.3,17.6-52.7,38.5-72.4c31.8-30,69.9-41.4,113-36c28.6,3.6,53.4,16,74,36.2
		c28.4,27.7,41.8,61.8,40.8,101.5c-0.1,3.5-0.4,7-0.6,10.5c5.7-2.3,11.3-4.6,16.9-7c0.4-0.2,0.8-1.1,0.8-1.6
		C308.4,147,307.3,130.9,302.8,115.3z"/>
	<path class="st0" d="M224.4,253.4c18.5-35.4,47.2-58.9,83.8-73.3c-0.6,0.5-1.1,1-1.7,1.4c-0.6,0.5-1.2,1-1.9,1.6
		c-20.4,17.3-36.6,37.9-49.8,61c-7.9,13.9-14.6,28.3-20.5,43.2c-1,2.4-2.2,4.7-3.3,7.1c-0.3,0.6-0.7,1.2-1.1,1.7
		c-4.3,5.7-10,5.6-14.2-0.2c-3.1-4.3-6.3-8.6-9.9-12.6c-9.3-10.4-20.5-18.3-33.1-24.3c-3.9-1.9-6.7-4.5-6.6-9.2c0-0.4,0-0.8,0.1-1.1
		c2.1-7.6,5.8-14.1,12.4-18.6c3.7-2.5,8.1-2.9,12.1-1.3c3.8,1.5,7.7,3.3,10.9,5.8c7.2,5.6,14.1,11.7,21,17.5
		C223.2,252.4,223.7,252.8,224.4,253.4z"/>
</g>
</svg>
